<?xml version="1.0" encoding="utf-8"?>
<!-- Generator: Adobe Illustrator 19.0.0, SVG Export Plug-In . SVG Version: 6.00 Build 0)  -->
<svg version="1.1" id="Layer_1" xmlns="http://www.w3.org/2000/svg" xmlns:xlink="http://www.w3.org/1999/xlink" x="0px" y="0px"
	 viewBox="-343 745 512 512" style="enable-background:new -343 745 512 512;" xml:space="preserve">
<style type="text/css">
	.st0{fill:#FFFFFF;}
</style>
<path class="st0" d="M153,1089h-8v-64c0-17.7-14.3-32-32-32V857c0-17.7-14.3-32-32-32h-336c-17.7,0-32,14.3-32,32v136
	c-17.7,0-32,14.3-32,32v64h-8c-4.4,0-8,3.6-8,8v32c0,4.4,3.6,8,8,8h8v32c0,4.4,3.6,8,8,8h24c3.8,0,7.1-2.7,7.8-6.4l6.7-33.6H98.4
	l6.7,33.6c0.7,3.7,4,6.4,7.8,6.4h24c4.4,0,8-3.6,8-8v-32h8c4.4,0,8-3.6,8-8v-32C161,1092.6,157.4,1089,153,1089z M-271,857
	c0-8.8,7.2-16,16-16H81c8.8,0,16,7.2,16,16v136H81v-32c0-17.7-14.3-32-32-32h-96c-17.7,0-32,14.3-32,32v32h-16v-32
	c0-17.7-14.3-32-32-32h-96c-17.7,0-32,14.3-32,32v32h-16V857z M65,961v32H-63v-32c0-8.8,7.2-16,16-16h96C57.8,945,65,952.2,65,961z
	 M-111,961v32h-128v-32c0-8.8,7.2-16,16-16h96C-118.2,945-111,952.2-111,961z M-303,1025c0-8.8,7.2-16,16-16h400c8.8,0,16,7.2,16,16
	v64h-432V1025z M-293.6,1161h-9.4v-24h14.2L-293.6,1161z M129,1161h-9.4l-4.8-24H129V1161z M145,1121h-464v-16h464V1121z"/>
</svg>
