<?xml version="1.0" encoding="utf-8"?>
<!-- Generator: Adobe Illustrator 19.0.0, SVG Export Plug-In . SVG Version: 6.00 Build 0)  -->
<svg version="1.1" id="Layer_1" xmlns="http://www.w3.org/2000/svg" xmlns:xlink="http://www.w3.org/1999/xlink" x="0px" y="0px"
	 viewBox="-343 745 512 512" style="enable-background:new -343 745 512 512;" xml:space="preserve">
<style type="text/css">
	.st0{fill:#FFFFFF;}
</style>
<g>
	<g>
		<path class="st0" d="M84.8,981.2c3.3-4,4.8-9.1,4.2-14.3c-0.3-2.8-1.2-5.4-2.6-7.8c20.6-29.9,31-58.9,31-86.4
			c0-49.6-18.7-79-34.3-94.9C62.4,756.6,33.3,745,1.2,745h-176.4c-31.3,0-59.8,11.1-80.4,31.2c-3,2.9-3,7.6-0.1,10.6s7.6,3,10.6,0.1
			c15.7-15.4,37-24.6,60.7-26.5v45.2c-20.7,2.7-47.1,16.2-47.1,67.1c0,13.9,5.8,29.8,17.2,47.5l-35.1,28.4
			c-17.9-26.6-27-52.1-27-75.9c0-23.7,4.6-44.6,13.8-61.9c1.9-3.7,0.5-8.2-3.2-10.1c-3.7-1.9-8.2-0.5-10.1,3.2
			c-10.3,19.6-15.5,42.8-15.5,68.9c0,27.5,10.4,56.5,31,86.4c-1.4,2.4-2.3,5-2.6,7.8c-0.5,5.2,1,10.3,4.2,14.3l14,17.2
			c-12.5,24.3-19.6,51.9-19.6,81.1v87.2c0,49.8,40.5,90.3,90.3,90.3H0.2c49.8,0,90.3-40.5,90.3-90.3v-87.2
			c0-28.5-6.7-56.2-19.6-81.1L84.8,981.2z M73.2,971.8l-10.3,12.7c-1.4-2.1-2.8-4.2-4.2-6.3c-13.2-19-29.8-34.9-48.8-47.3l5-6.2
			c1.6-1.9,4.4-2.2,6.3-0.7l51.3,41.6c0.9,0.8,1.5,1.8,1.6,3C74.3,969.6,73.9,970.8,73.2,971.8L73.2,971.8z M102.5,872.7
			c0,23.8-9.1,49.3-27,75.9l-35.1-28.4c11.4-17.6,17.2-33.6,17.2-47.5c0-50.8-26.3-64.3-47.1-67.1v-45.2c24.3,2,46.1,11.7,62,27.8
			C86.2,802.2,102.5,828.1,102.5,872.7z M-4.5,805h-165v-45h165V805z M-247.2,971.7c-0.8-0.9-1.1-2.1-1-3.3c0.1-1.2,0.7-2.3,1.6-3
			l51.3-41.5c1.9-1.6,4.8-1.3,6.3,0.7l5.1,6.3c-21.3,13.9-39.4,32.2-53,53.7L-247.2,971.7z M75.5,1166.7c0,20.4-8.2,38.9-21.4,52.5
			c4.1-8.6,6.4-18.2,6.4-28.4v-69.4c0-70.6-57.4-128-128-128h-39.1c-70.6,0-128,57.4-128,128v30.9c0,4.1,3.4,7.5,7.5,7.5
			s7.5-3.4,7.5-7.5v-30.9c0-62.3,50.7-113,113-113h39.1c62.3,0,113,50.7,113,113v69.4c0,28.2-22.9,51.2-51.2,51.2h-162.7
			c-28.2,0-51.2-22.9-51.2-51.2v-5.5c0-4.1-3.4-7.5-7.5-7.5s-7.5,3.4-7.5,7.5v5.5c0,10.2,2.3,19.8,6.4,28.4
			c-13.2-13.6-21.4-32.1-21.4-52.5v-87.2c0-89.6,72.9-162.5,162.5-162.5c9.9,0,19.8,0.9,29.4,2.7c4.1,0.7,8-2,8.7-6
			c0.7-4.1-2-8-6-8.7C-65.4,903-76.2,902-87,902c-30.3,0-58.8,7.6-83.8,21.1l-6.5-8c-3.3-4-7.9-6.6-13.1-7.1
			c-4.3-0.5-8.6,0.5-12.2,2.8c-9.2-14.5-14-27.6-14-38.1c0-17.8,3.6-31.3,10.8-40.1c6.8-8.3,17.1-12.5,30.6-12.5H1.2
			c13.5,0,23.8,4.2,30.6,12.5c7.1,8.8,10.8,22.3,10.8,40.1c0,10.5-4.8,23.6-14,38.1c-3.6-2.2-7.9-3.2-12.2-2.8
			c-5.2,0.5-9.8,3.1-13.1,7.1l-6.4,7.9c-6.3-3.4-12.9-6.4-19.7-9.1c-3.9-1.5-8.2,0.4-9.7,4.3s0.4,8.2,4.3,9.7
			c30.2,11.7,56,32,74.6,58.7c3.2,4.7,6.2,9.4,8.9,14.4c0,0,0,0,0,0.1c13.2,23.9,20.1,50.7,20.1,78.4L75.5,1166.7L75.5,1166.7z"/>
		<path class="st0" d="M-87,1200.5c41.6,0,75.5-33.9,75.5-75.5s-33.9-75.5-75.5-75.5s-75.5,33.9-75.5,75.5S-128.6,1200.5-87,1200.5z
			 M-87,1064.5c33.4,0,60.5,27.1,60.5,60.5s-27.1,60.5-60.5,60.5s-60.5-27.1-60.5-60.5S-120.4,1064.5-87,1064.5z"/>
	</g>
</g>
</svg>
