<?xml version="1.0" encoding="utf-8"?>
<!-- Generator: Adobe Illustrator 19.0.0, SVG Export Plug-In . SVG Version: 6.00 Build 0)  -->
<svg version="1.1" id="Layer_1" xmlns="http://www.w3.org/2000/svg" xmlns:xlink="http://www.w3.org/1999/xlink" x="0px" y="0px"
	 viewBox="850 -806 2500 2412" style="enable-background:new 850 -806 2500 2412;" xml:space="preserve">
<style type="text/css">
	.st0{fill:#FFFFFF;}
</style>
<path class="st0" d="M911.7,929.7c212.1-299.4,621.7-324.4,823.4-297.3c-56.1-60.3-197.5-172.6-97.7-357.6
	c-455.4,56.1-600.9-224.6-621.7-445c-41.6-370.1,282.7-636.2,615.4-640.4h736.1c-24.9,22.9-147.6,104-176.7,104l-193.4,2.1
	c492.8,463.7,14.5,852.5-83.2,933.6C1716.3,468,2336,586.6,2302.7,992c0,368-309.8,609.2-794.3,609.2
	C969.9,1599.2,712.1,1264.5,911.7,929.7L911.7,929.7z M1990.8,1376.7c193.4-147.6,147.6-365.9-2.1-511.5
	c-89.4-87.3-197.5-170.5-426.3-143.5c-268.3,31.2-463.7,160.1-453.3,361.8c56.1,428.4,673.7,438.7,881.6,291.1L1990.8,1376.7
	L1990.8,1376.7z M1859.8,118.8c222.5-183,16.6-821.3-286.9-821.3c-193.4,0-293.2,139.3-301.5,336.8
	C1256.8,0.2,1591.6,339.2,1859.8,118.8z M2843.3,351.6l-334.7,2.1V185.3h330.6v-330.6h168.4v330.6l334.7,2.1l2.1,166.4h-336.8v332.7
	l-166.4,2.1L2843.3,351.6L2843.3,351.6z"/>
</svg>
