<?xml version="1.0" encoding="utf-8"?>
<!-- Generator: Adobe Illustrator 19.0.0, SVG Export Plug-In . SVG Version: 6.00 Build 0)  -->
<svg version="1.1" id="outline" xmlns="http://www.w3.org/2000/svg" xmlns:xlink="http://www.w3.org/1999/xlink" x="0px" y="0px"
	 viewBox="-343 745 512 512" style="enable-background:new -343 745 512 512;" xml:space="preserve">
<style type="text/css">
	.st0{fill:#FFFFFF;}
</style>
<path class="st0" d="M-239,1041.7l-16-1.3c-0.2,2.1-4,51.8,24,82.1c14.5,15.3,34.9,23.5,56,22.5v-16c-16.5,0.9-32.6-5.4-44.2-17.3
	C-242.4,1086.6-239.1,1042.1-239,1041.7z"/>
<rect x="-23" y="1009" class="st0" width="104" height="16"/>
<rect x="-55" y="1009" class="st0" width="16" height="16"/>
<path class="st0" d="M-266.6,977H-287v104c0.1,49.9,38.3,91.4,88,95.6v48.4H25v-48.4c49.7-4.2,87.9-45.7,88-95.6V977H36.3l50-50
	c5.3-4.3,41.4-33.4,48.3-40.3c20.8-19.4,21.9-52,2.5-72.8c-0.8-0.9-1.6-1.7-2.5-2.5c-19.3-20.8-51.9-22-72.7-2.6
	c-0.9,0.8-1.8,1.7-2.6,2.6c-6.9,6.9-36.1,43.1-40.3,48.3L-98.3,977h-33.1c37.3-21.4,60.3-61,60.4-104v-88c0-4.4-3.6-8-8-8h-16
	c-55.1,0.1-103.1,37.7-116.4,91.3c-20.1-41.1-61.9-67.2-107.6-67.3c-4.4,0-8,3.6-8,8v64C-326.9,916-303.9,955.6-266.6,977z M9,1209
	h-128v-16h-16v16h-16v-16h-16v16h-16v-32H9V1209z M70.7,822.7c13.5-14.5,36.2-15.4,50.8-1.9c0.7,0.6,1.3,1.2,1.9,1.9
	c14.5,13.3,15.6,35.8,2.3,50.4c-0.7,0.8-1.5,1.6-2.3,2.3c-4.7,4.7-28.2,23.9-41.8,34.9l-45.8-45.8C46.8,850.8,66,827.4,70.7,822.7z
	 M25,876.3L69.7,921L57,933.7L12.3,889L25,876.3z M1,900.3L45.7,945L17,973.7L-27.7,929L1,900.3z M-39,940.3L-2.3,977h-73.4
	L-39,940.3z M97,993v88c0,44.2-35.8,80-80,80h-208c-44.2,0-80-35.8-80-80v-88H97z M-199,897c0.1-57.4,46.6-103.9,104-104h8v80
	c-0.1,57.4-46.6,103.9-104,104h-8v-3.9c15-10.9,72.6-56.8,80-123.3l-15.9-1.8c-5.5,49.5-43.8,87.6-64,104.6V897z M-311,817.3
	c54.1,4.2,95.9,49.4,96,103.7v33.4c-25.8-19.4-45.4-45.9-56.5-76.2l-15,5.6c13.2,37,38.4,68.7,71.5,89.9v3
	c-54.1-4.2-95.9-49.4-96-103.7V817.3z"/>
<rect x="93.7" y="833" transform="matrix(-0.7071 0.7071 -0.7071 -0.7071 773.9283 1361.4332)" class="st0" width="22.6" height="16"/>
<rect x="69.7" y="857" transform="matrix(-0.7071 0.7071 -0.7071 -0.7071 749.9262 1419.3695)" class="st0" width="22.6" height="16"/>
</svg>
