<svg id="Layer_1" enable-background="new 0 0 512 512" height="512" viewBox="0 0 512 512" width="512" xmlns="http://www.w3.org/2000/svg"><g><g><path d="m467.154 449h-33.654v-35h10.5c10.752 0 19.5-8.748 19.5-19.5v-64c0-10.752-8.748-19.5-19.5-19.5h-11.097c.376-1.519.597-3.098.597-4.731v-75.538c0-10.88-8.851-19.731-19.73-19.731h-252.972c-4.142 0-7.5 3.358-7.5 7.5s3.358 7.5 7.5 7.5h252.972c2.608 0 4.73 2.122 4.73 4.731v75.538c0 2.609-2.122 4.731-4.73 4.731h-39.205c2.201-4.051 3.452-8.69 3.452-13.615 0-15.779-12.837-28.616-28.615-28.616h-41.153c-15.778 0-28.615 12.837-28.615 28.616 0 4.926 1.251 9.564 3.452 13.615h-56.088c2.201-4.051 3.452-8.69 3.452-13.615 0-15.779-12.837-28.616-28.615-28.616h-41.153c-15.778 0-28.615 12.837-28.615 28.616 0 4.926 1.251 9.564 3.452 13.615h-37.288c-2.609 0-4.731-2.122-4.731-4.731v-75.538c0-2.609 2.122-4.731 4.731-4.731h30.195c4.142 0 7.5-3.358 7.5-7.5s-3.358-7.5-7.5-7.5h-30.195c-10.88 0-19.731 8.851-19.731 19.731v75.538c0 1.633.221 3.212.597 4.731h-11.097c-10.752 0-19.5 8.748-19.5 19.5v64c0 10.752 8.748 19.5 19.5 19.5h10.5v35h-33.654c-24.728 0-44.846 20.118-44.846 44.846 0 10.01 8.144 18.154 18.154 18.154h45.249c4.142 0 7.5-3.358 7.5-7.5s-3.358-7.5-7.5-7.5h-45.249c-1.739 0-3.154-1.415-3.154-3.154 0-16.457 13.389-29.846 29.846-29.846h422.308c16.457 0 29.846 13.389 29.846 29.846 0 1.739-1.415 3.154-3.153 3.154h-398.351c-4.142 0-7.5 3.358-7.5 7.5s3.358 7.5 7.5 7.5h398.351c10.01 0 18.153-8.144 18.153-18.154 0-24.728-20.117-44.846-44.846-44.846zm-172.521-151.615c0-7.508 6.107-13.616 13.615-13.616h41.153c7.508 0 13.615 6.108 13.615 13.616 0 7.507-6.107 13.615-13.615 13.615h-41.153c-7.508 0-13.615-6.108-13.615-13.615zm-147.568 0c0-7.508 6.108-13.616 13.615-13.616h41.153c7.507 0 13.615 6.108 13.615 13.616 0 7.507-6.108 13.615-13.615 13.615h-41.153c-7.507 0-13.615-6.108-13.615-13.615zm-83.565 33.115c0-2.481 2.019-4.5 4.5-4.5h376c2.481 0 4.5 2.019 4.5 4.5v24.5h-385zm0 64v-24.5h385v24.5c0 2.481-2.019 4.5-4.5 4.5h-91.761c-4.143 0-7.5 3.358-7.5 7.5s3.357 7.5 7.5 7.5h36.261v35h-265v-35h196.739c4.143 0 7.5-3.358 7.5-7.5s-3.357-7.5-7.5-7.5h-252.239c-2.481 0-4.5-2.019-4.5-4.5zm30 54.5v-35h15v35zm310 0v-35h15v35z"/><path d="m256 127c35.014 0 63.5-28.486 63.5-63.5s-28.486-63.5-63.5-63.5-63.5 28.486-63.5 63.5 28.486 63.5 63.5 63.5zm0-112c26.743 0 48.5 21.757 48.5 48.5s-21.757 48.5-48.5 48.5-48.5-21.757-48.5-48.5 21.757-48.5 48.5-48.5z"/><path d="m267.998 86.105c1.465 1.464 3.385 2.197 5.304 2.197s3.839-.732 5.304-2.197c2.929-2.929 2.929-7.678 0-10.606l-15.106-15.105v-20.231c0-4.142-3.357-7.5-7.5-7.5-4.142 0-7.5 3.358-7.5 7.5v23.337c0 1.989.79 3.897 2.197 5.303z"/><path d="m368.296 108.882h19.214l-22.406 23.302c-2.084 2.167-2.672 5.37-1.494 8.136s3.894 4.562 6.9 4.562h37.786c4.143 0 7.5-3.358 7.5-7.5s-3.357-7.5-7.5-7.5h-20.169l22.406-23.302c2.084-2.167 2.672-5.37 1.494-8.136s-3.894-4.562-6.9-4.562h-36.831c-4.143 0-7.5 3.358-7.5 7.5s3.357 7.5 7.5 7.5z"/><path d="m346.851 165.28h8.453l-12.292 12.783c-2.084 2.167-2.672 5.37-1.494 8.136s3.894 4.562 6.9 4.562h26.745c4.143 0 7.5-3.358 7.5-7.5s-3.357-7.5-7.5-7.5h-9.129l12.292-12.783c2.084-2.167 2.672-5.37 1.494-8.136s-3.894-4.562-6.9-4.562h-26.069c-4.143 0-7.5 3.358-7.5 7.5s3.357 7.5 7.5 7.5z"/></g></g></svg>