<?xml version="1.0" encoding="utf-8"?>
<!-- Generator: Adobe Illustrator 19.0.0, SVG Export Plug-In . SVG Version: 6.00 Build 0)  -->
<svg version="1.1" id="svg2" xmlns:svg="http://www.w3.org/2000/svg"
	 xmlns="http://www.w3.org/2000/svg" xmlns:xlink="http://www.w3.org/1999/xlink" x="0px" y="0px" viewBox="-563.8 997.3 15.6 13.5"
	 style="enable-background:new -563.8 997.3 15.6 13.5;" xml:space="preserve">
<path id="path4" d="M-548.3,1000.4c-0.1,1.5-1.1,3.6-3.2,6.2c-2.1,2.7-3.9,4.1-5.4,4.1c-0.9,0-1.7-0.8-2.3-2.5
	c-0.4-1.5-0.8-3.1-1.3-4.6c-0.5-1.7-1-2.5-1.5-2.5c-0.1,0-0.5,0.2-1.2,0.7l-0.7-0.9c0.8-0.7,1.5-1.3,2.3-2c1-0.9,1.8-1.4,2.3-1.4
	c1.2-0.1,2,0.7,2.2,2.5c0.3,1.9,0.5,3.1,0.6,3.6c0.3,1.6,0.7,2.4,1.2,2.4c0.3,0,0.8-0.5,1.5-1.5c0.7-1,1-1.8,1-2.3
	c0.1-0.9-0.3-1.3-1-1.3c-0.4,0-0.8,0.1-1.2,0.3c0.8-2.5,2.2-3.7,4.4-3.7C-548.9,997.4-548.2,998.4-548.3,1000.4"/>
</svg>
