<?xml version="1.0" encoding="utf-8"?>
<!-- Generator: Adobe Illustrator 19.0.0, SVG Export Plug-In . SVG Version: 6.00 Build 0)  -->
<svg version="1.1" id="BG_1_" xmlns="http://www.w3.org/2000/svg" xmlns:xlink="http://www.w3.org/1999/xlink" x="0px" y="0px"
	 viewBox="0 0 923 949" style="enable-background:new 0 0 923 949;" xml:space="preserve">
<style type="text/css">
	.st0{fill-rule:evenodd;clip-rule:evenodd;fill:#FFF0EA;}
</style>
<g id="BG">
	<g>
		<path class="st0" d="M171.8,0.2c-23,105.5-66,202-116.3,293.8c0,0-22.2,38-38.6,96.8c-4.1,14.7-7.8,30.7-10.7,47.8
			c-1.4,8.6-2.6,17.4-3.6,26.4c-0.5,4.5-0.9,9.1-1.2,13.8c-0.2,2.3-0.3,4.7-0.5,7c-0.1,1.2-0.1,2.4-0.2,3.5
			c-0.1,1.2-0.1,2.4-0.2,3.6c-1.5,38,2,79.4,13,122C14.2,615,41,742.4,153.8,842.3c0.1,0,31,29.8,88.1,58
			c28.6,14.1,63.8,27.8,105,37c20.5,4.6,42.5,8,65.9,9.7c11.7,0.9,23.6,1.3,35.9,1.3c1.5,0,3.1,0,4.6,0c1.5,0,3.1,0,4.7-0.1
			c3.1-0.1,6.2-0.2,9.4-0.3c6.3-0.3,12.7-0.6,19.1-1.2c-0.1,0,80.2-3.3,159.1-37.5c-0.1,0,85-35,153.7-90.5c0,0,38.5-32.2,67.9-70.7
			c19.9-229.7,37.7-459.5,55.9-689C660.7,39.7,457.9,26.6,171.8,0.2z"/>
	</g>
</g>
</svg>
