<?xml version="1.0" encoding="utf-8"?>
<!-- Generator: Adobe Illustrator 19.0.0, SVG Export Plug-In . SVG Version: 6.00 Build 0)  -->
<svg version="1.1" id="Icon_1_" xmlns="http://www.w3.org/2000/svg" xmlns:xlink="http://www.w3.org/1999/xlink" x="0px" y="0px"
	 viewBox="0 0 50 41" style="enable-background:new 0 0 50 41;" xml:space="preserve">
<style type="text/css">
	.st0{fill:#FF817E;}
</style>
<g id="Icon">
	<g>
		<path class="st0" d="M9.3,35.2c0,0,6.3,3.7,12.7,2.5c0,0,7.9-7.7,8.7-20.6c0,0,1.9,9.2-6.3,20.9c0,0,26.1-13.5,6.7-38
			c0,0-1.3,7.2-8.6,12.8c0,0-9.2,7.6-4,18.4c0,0-4.2-3-8.8-2c0,0-5.2,1.9-9.7-0.2c0,0,4.5,17.6,21.4,10.1
			C21.4,39.1,15,40.1,9.3,35.2z M47.3,14c-1.7-1-3.8-0.4-4.7,1.3c-1,1.7-0.4,3.8,1.3,4.8c0.8,0.4,1.6,0.6,2.4,0.4
			c-0.9,2.5-6.7,17.1-25.1,20.5c0,0,19.4-1.2,27.7-22.6c0,0,0,0,0-0.1C49.4,16.8,48.8,14.9,47.3,14z"/>
	</g>
</g>
</svg>
