<?xml version="1.0" encoding="utf-8"?>
<!-- Generator: Adobe Illustrator 19.0.0, SVG Export Plug-In . SVG Version: 6.00 Build 0)  -->
<svg version="1.1" id="Capa_1" xmlns="http://www.w3.org/2000/svg" xmlns:xlink="http://www.w3.org/1999/xlink" x="0px" y="0px"
	 viewBox="-343 745 512 512" style="enable-background:new -343 745 512 512;" xml:space="preserve">
<style type="text/css">
	.st0{fill:#FFFFFF;}
</style>
<g>
	<path class="st0" d="M83.7,1091.4c-18,0-26.4-4-36.3-8.6c-11.4-5.4-24.4-11.5-49.1-11.5c-24.7,0-37.7,6.1-49.1,11.5
		c-9.8,4.6-18.3,8.6-36.3,8.6c-18,0-26.4-4-36.3-8.6c-11.4-5.4-24.4-11.5-49.1-11.5s-37.7,6.1-49.1,11.5c-9.8,4.6-18.3,8.6-36.3,8.6
		s-26.4-4-36.3-8.6c-11.4-5.4-24.4-11.5-49.1-11.5v30.1c18,0,26.4,4,36.3,8.6c11.4,5.4,24.4,11.5,49.1,11.5
		c24.7,0,37.7-6.1,49.1-11.5c9.8-4.6,18.3-8.6,36.3-8.6s26.4,4,36.3,8.6c11.4,5.4,24.4,11.5,49.1,11.5c24.7,0,37.7-6.1,49.1-11.5
		c9.8-4.6,18.3-8.6,36.3-8.6c18,0,26.4,4,36.3,8.6c11.4,5.4,24.4,11.5,49.1,11.5s37.7-6.1,49.1-11.5c9.8-4.6,18.3-8.6,36.3-8.6
		v-30.1c-24.7,0-37.7,6.1-49.1,11.5C110.1,1087.4,101.6,1091.4,83.7,1091.4z"/>
	<path class="st0" d="M83.7,1156.6c-18,0-26.4-4-36.3-8.6c-11.4-5.4-24.4-11.5-49.1-11.5c-24.7,0-37.7,6.1-49.1,11.5
		c-9.8,4.6-18.3,8.6-36.3,8.6c-18,0-26.4-4-36.3-8.6c-11.4-5.4-24.4-11.5-49.1-11.5s-37.7,6.1-49.1,11.5c-9.8,4.6-18.3,8.6-36.3,8.6
		s-26.4-4-36.3-8.6c-11.4-5.4-24.4-11.5-49.1-11.5v30.1c18,0,26.4,4,36.3,8.6c11.4,5.4,24.4,11.5,49.1,11.5
		c24.7,0,37.7-6.1,49.1-11.5c9.8-4.6,18.3-8.6,36.3-8.6s26.4,4,36.3,8.6c11.4,5.4,24.4,11.5,49.1,11.5c24.7,0,37.7-6.1,49.1-11.5
		c9.8-4.6,18.3-8.6,36.3-8.6c18,0,26.4,4,36.3,8.6c11.4,5.4,24.4,11.5,49.1,11.5s37.7-6.1,49.1-11.5c9.8-4.6,18.3-8.6,36.3-8.6
		v-30.1c-24.7,0-37.7,6.1-49.1,11.5C110.1,1152.6,101.6,1156.6,83.7,1156.6z"/>
	<path class="st0" d="M169,920.7V868c0-29.1-23.6-52.7-52.7-52.7S63.6,838.9,63.6,868v22.6H33.5V868c0-29.1-23.6-52.7-52.7-52.7
		s-52.7,23.6-52.7,52.7v22.6H-343v30.1h271.1v109.2c-4.3,0.7-9.1,1.2-15.1,1.2c-18,0-26.4-4-36.3-8.6c-11.4-5.4-24.4-11.5-49.1-11.5
		s-37.7,6.1-49.1,11.5c-9.8,4.6-18.3,8.6-36.3,8.6s-26.4-4-36.3-8.6c-11.4-5.4-24.4-11.5-49.1-11.5v30.1c18,0,26.4,4,36.3,8.6
		c11.4,5.4,24.4,11.5,49.1,11.5c24.7,0,37.7-6.1,49.1-11.5c9.8-4.6,18.3-8.6,36.3-8.6s26.4,4,36.3,8.6c11.4,5.4,24.4,11.5,49.1,11.5
		c24.7,0,37.7-6.1,49.1-11.5c9.8-4.6,18.3-8.6,36.3-8.6c18,0,26.4,4,36.3,8.6c11.4,5.4,24.4,11.5,49.1,11.5s37.7-6.1,49.1-11.5
		c9.8-4.6,18.3-8.6,36.3-8.6V1011c-24.7,0-37.7,6.1-49.1,11.5c-7.8,3.7-14.7,6.9-26.2,8.1V920.7H169z M93.7,868
		c0-12.5,10.1-22.6,22.6-22.6s22.6,10.1,22.6,22.6v22.6H93.7V868z M-41.8,868c0-12.5,10.1-22.6,22.6-22.6S3.4,855.5,3.4,868v22.6
		h-45.2V868z M63.6,920.7v30.1H-41.8v-30.1H63.6z M-1.7,1011c-18.6,0-30.5,3.4-40.1,7.4v-37.6H63.6v47.9c-6.1-1.6-11-3.9-16.2-6.3
		C36,1017.1,23,1011-1.7,1011z"/>
</g>
</svg>
